<?xml version="1.0" encoding="UTF-8"?>
<svg xmlns="http://www.w3.org/2000/svg" viewBox="0 0 13.4 28.09">
  <defs>
    <style>
      .cls-1 {
        fill: #ff291a;
      }

      .cls-2 {
        fill: #e1e6f2;
      }

      .cls-3 {
        fill: #404040;
      }

      .cls-4 {
        fill: #363545;
      }

      .cls-5 {
        fill: #373646;
      }

      .cls-6 {
        fill: #42b52d;
      }

      .cls-7 {
        fill: #707070;
      }

      .cls-8 {
        fill: #383838;
      }

      .cls-9 {
        fill: #58cc43;
      }

      .cls-10 {
        fill: #575757;
      }

      .cls-11 {
        fill: #3c3b4d;
      }

      .cls-12 {
        fill: #4ebf39;
      }

      .cls-13 {
        fill: #cfcfcf;
      }

      .cls-13, .cls-14 {
        mix-blend-mode: multiply;
      }

      .cls-14 {
        fill: #f0f0f0;
      }

      .cls-15 {
        fill: #101014;
        mix-blend-mode: screen;
      }

      .cls-16 {
        isolation: isolate;
      }
    </style>
  </defs>
  <g class="cls-16">
    <g id="Layer_1" data-name="Layer 1">
      <g>
        <polygon class="cls-3" points="11.65 15.18 10.41 15.18 9.18 15.18 7.94 15.18 6.7 15.18 5.46 15.18 4.22 15.18 2.99 15.18 1.75 15.18 1.75 15.02 1.75 14.86 1.75 14.7 1.75 14.54 1.75 14.38 1.75 14.23 1.75 14.07 1.75 13.91 2.99 13.91 4.22 13.91 5.46 13.91 6.7 13.91 7.94 13.91 9.18 13.91 10.41 13.91 11.65 13.91 11.65 14.07 11.65 14.23 11.65 14.38 11.65 14.54 11.65 14.7 11.65 14.86 11.65 15.02 11.65 15.18"/>
        <g>
          <path class="cls-6" d="M1.36,7.24h0s-.06,0-.09,0-.06-.01-.08-.03-.05-.02-.07-.04c-.02-.02-.05-.03-.07-.05-.02-.02-.04-.04-.05-.07-.02-.02-.03-.05-.04-.07-.01-.03-.02-.05-.03-.08,0-.03,0-.06,0-.09V2.78s0-.06,0-.09c0-.03,.01-.06,.03-.08,.01-.03,.02-.05,.04-.07,.02-.02,.03-.05,.05-.07,.02-.02,.04-.04,.07-.05s.05-.03,.07-.04c.03-.01,.05-.02,.08-.03s.06,0,.09,0h0s.06,0,.09,0c.03,0,.06,.01,.08,.03,.03,.01,.05,.02,.07,.04s.05,.03,.07,.05,.04,.04,.05,.07c.02,.02,.03,.05,.04,.07,.01,.03,.02,.05,.03,.08,0,.03,0,.06,0,.09V6.8s0,.06,0,.09c0,.03-.01,.06-.03,.08-.01,.03-.02,.05-.04,.07-.02,.02-.03,.05-.05,.07-.02,.02-.04,.04-.07,.05-.02,.02-.05,.03-.07,.04s-.05,.02-.08,.03c-.03,0-.06,0-.09,0Z"/>
          <path class="cls-6" d="M12.04,7.24h0s.06,0,.09,0c.03,0,.06-.01,.08-.03s.05-.02,.07-.04c.02-.02,.05-.03,.07-.05,.02-.02,.04-.04,.05-.07,.02-.02,.03-.05,.04-.07,.01-.03,.02-.05,.03-.08,0-.03,0-.06,0-.09V2.78s0-.06,0-.09c0-.03-.01-.06-.03-.08-.01-.03-.02-.05-.04-.07-.02-.02-.03-.05-.05-.07-.02-.02-.04-.04-.07-.05s-.05-.03-.07-.04c-.03-.01-.05-.02-.08-.03-.03,0-.06,0-.09,0h0s-.06,0-.09,0c-.03,0-.06,.01-.08,.03-.03,.01-.05,.02-.07,.04s-.05,.03-.07,.05c-.02,.02-.04,.04-.05,.07-.02,.02-.03,.05-.04,.07-.01,.03-.02,.05-.03,.08,0,.03,0,.06,0,.09V6.8s0,.06,0,.09c0,.03,.01,.06,.03,.08,.01,.03,.02,.05,.04,.07,.02,.02,.03,.05,.05,.07,.02,.02,.04,.04,.07,.05,.02,.02,.05,.03,.07,.04s.05,.02,.08,.03c.03,0,.06,0,.09,0Z"/>
        </g>
        <path class="cls-6" d="M1.26,.91s-.01,.02-.02,.03c0,.01-.01,.02-.02,.03,0,.01-.01,.02-.02,.03,0,.01-.01,.02-.02,.03,0,.01-.01,.02-.01,.03,0,.01,0,.02-.01,.03,0,.01,0,.02-.01,.04s0,.02-.01,.04,0,.02,0,.04c0,.01,0,.02,0,.04,0,.01,0,.02,0,.04,0,.01,0,.02,0,.04,0,.01,0,.02,0,.04s0,.02,0,.04c0,.01,0,.02,0,.04,0,.01,0,.02,0,.04V13.72s0,.01,0,.02c0,0,0,.01,0,.02,0,0,0,.01,0,.02,0,0,0,.01,0,.02s0,.01,0,.02c0,0,0,.01,0,.02,0,0,0,.01,0,.02s0,.01,0,.02c0,0,0,.01,0,.02,0,0,0,.01,0,.02,0,0,0,.01,.01,.02,0,0,0,.01,.01,.02s0,.01,.01,.02c0,0,0,.01,.01,.02,0,0,0,.01,.01,.02,0,0,0,.01,.01,.01,0,0,0,0,.01,.01s.01,0,.02,.01c0,0,.01,0,.02,.01s.01,0,.02,.01c0,0,.01,0,.02,.01,0,0,.01,0,.02,.01,0,0,.01,0,.02,0,0,0,.01,0,.02,0,0,0,.01,0,.02,0s.01,0,.02,0c0,0,.01,0,.02,0,0,0,.01,0,.02,0s.01,0,.02,0c0,0,.01,0,.02,0,0,0,.01,0,.02,0,0,0,.01,0,.02,0H11.88s.01,0,.02,0c0,0,.01,0,.02,0,0,0,.01,0,.02,0,0,0,.01,0,.02,0s.01,0,.02,0c0,0,.01,0,.02,0,0,0,.01,0,.02,0s.01,0,.02,0c0,0,.01,0,.02,0,0,0,.01,0,.02,0,0,0,.01,0,.02-.01,0,0,.01,0,.02-.01s.01,0,.02-.01c0,0,.01,0,.02-.01,0,0,.01,0,.02-.01,0,0,.01,0,.01-.01,0,0,0,0,.01-.01s0-.01,.01-.02c0,0,0-.01,.01-.02,0,0,0-.01,.01-.02s0-.01,.01-.02c0,0,0-.01,.01-.02,0,0,0-.01,0-.02,0,0,0-.01,0-.02,0,0,0-.01,0-.02s0-.01,0-.02c0,0,0-.01,0-.02s0-.01,0-.02,0-.01,0-.02c0,0,0-.01,0-.02,0,0,0-.01,0-.02,0,0,0-.01,0-.02V1.48s0-.02,0-.04c0-.01,0-.03,0-.04,0-.01,0-.02,0-.04,0-.01,0-.02,0-.04,0-.01,0-.02,0-.04,0-.01,0-.02,0-.04,0-.01,0-.02,0-.04,0-.01,0-.02,0-.04,0-.01,0-.02-.01-.04s0-.02-.01-.04c0-.01,0-.02-.01-.03,0-.01,0-.02-.01-.03,0-.01-.01-.02-.02-.03,0-.01-.01-.02-.02-.03,0-.01-.01-.02-.02-.03,0-.01-.01-.02-.02-.03l-.02-.03-.02-.03-.02-.03-.02-.03-.02-.03-.02-.03-.02-.03-.02-.03-.02-.03-.02-.03-.02-.03-.02-.03-.02-.03-.02-.03-.02-.03-.02-.03s-.02-.04-.04-.06c-.01-.02-.03-.04-.04-.05-.01-.02-.03-.03-.04-.05-.02-.02-.03-.03-.05-.05s-.03-.03-.05-.04-.03-.03-.05-.04c-.02-.01-.04-.02-.05-.04-.02-.01-.04-.02-.06-.03-.02-.01-.04-.02-.06-.03-.02,0-.04-.02-.06-.03-.02,0-.04-.02-.06-.02-.02,0-.04-.01-.06-.02-.02,0-.04-.01-.06-.01-.02,0-.04,0-.07-.01s-.04,0-.07,0-.04,0-.07,0H2.42s-.04,0-.07,0-.04,0-.07,0-.04,0-.07,.01c-.02,0-.04,0-.06,.01-.02,0-.04,.01-.06,.02-.02,0-.04,.01-.06,.02-.02,0-.04,.02-.06,.03-.02,0-.04,.02-.06,.03-.02,.01-.04,.02-.06,.03-.02,.01-.04,.02-.05,.04-.02,.01-.03,.03-.05,.04-.02,.01-.03,.03-.05,.04s-.03,.03-.05,.05c-.02,.02-.03,.03-.04,.05-.01,.02-.03,.03-.04,.05-.01,.02-.03,.04-.04,.06l-.02,.03-.02,.03-.02,.03-.02,.03-.02,.03-.02,.03-.02,.03-.02,.03-.02,.03-.02,.03-.02,.03-.02,.03-.02,.03-.02,.03-.02,.03-.02,.03Z"/>
        <path class="cls-12" d="M11.75,1.48V13.29s0,.04,0,.06c0,.02,0,.04-.02,.06,0,.02-.02,.03-.03,.05-.01,.02-.02,.03-.04,.04-.01,.01-.03,.03-.04,.04-.02,.01-.03,.02-.05,.03-.02,0-.04,.01-.06,.02s-.04,0-.06,0H1.95s-.04,0-.06,0-.04,0-.06-.02c-.02,0-.03-.02-.05-.03-.02-.01-.03-.02-.04-.04s-.03-.03-.04-.04c-.01-.02-.02-.03-.03-.05s-.01-.04-.02-.06c0-.02,0-.04,0-.06V1.48s0-.01,0-.02,0-.01,0-.02c0,0,0-.01,0-.02,0,0,0-.01,0-.02,0,0,0-.01,0-.02s0-.01,0-.02c0,0,0-.01,0-.02,0,0,0-.01,0-.02,0,0,0-.01,0-.02,0,0,0-.01,0-.02,0,0,0-.01,0-.02,0,0,0-.01,0-.02s0-.01,0-.02c0,0,0-.01,0-.02,0,0,0-.01,0-.02,0,0,0,0,0-.01l.03-.05,.03-.05,.03-.05,.03-.05,.03-.05,.03-.05,.03-.05,.03-.05s.01-.02,.02-.03c0,0,.01-.02,.02-.02,0,0,.01-.02,.02-.02,0,0,.01-.01,.02-.02,0,0,.02-.01,.02-.02,0,0,.02-.01,.02-.02,0,0,.02-.01,.03-.02s.02-.01,.03-.02c0,0,.02,0,.03-.01,0,0,.02,0,.03-.01s.02,0,.03-.01,.02,0,.03,0,.02,0,.03,0c.01,0,.02,0,.03,0,.01,0,.02,0,.03,0,.01,0,.02,0,.03,0H10.98s.02,0,.03,0c.01,0,.02,0,.03,0,.01,0,.02,0,.03,0,.01,0,.02,0,.03,0,0,0,.02,0,.03,0,0,0,.02,0,.03,.01,0,0,.02,0,.03,.01,0,0,.02,0,.03,.01,0,0,.02,.01,.03,.02,0,0,.02,.01,.03,.02s.02,.01,.02,.02c0,0,.02,.01,.02,.02,0,0,.01,.01,.02,.02,0,0,.01,.02,.02,.02,0,0,.01,.02,.02,.02,0,0,.01,.02,.02,.03l.03,.05,.03,.05,.03,.05,.03,.05,.03,.05,.03,.05,.03,.05,.03,.05s0,0,0,.01c0,0,0,.01,0,.02,0,0,0,.01,0,.02,0,0,0,.01,0,.02,0,0,0,.01,0,.02s0,.01,0,.02c0,0,0,.01,0,.02,0,0,0,.01,0,.02,0,0,0,.01,0,.02,0,0,0,.01,0,.02,0,0,0,.01,0,.02,0,0,0,.01,0,.02s0,.01,0,.02c0,0,0,.01,0,.02s0,.01,0,.02c0,0,0,.01,0,.02Z"/>
        <path class="cls-12" d="M1.65,7.02v.75l-.19,.04-.19,.04-.19,.04-.19,.04-.19,.04-.19,.04-.19,.04-.19,.04s0,0,0,0c0,0,0,0,0,0s0,0,0,0c0,0,0,0,0,0,0,0,0,0,0,0h0s0,0,0,0h0s-.03,0-.04,0c-.01,0-.02,0-.03-.01,0,0-.02-.01-.03-.02s-.01-.02-.02-.03c0,0,0-.02-.01-.03,0-.01,0-.02,0-.03,0-.01,0-.02,0-.03,0-.01,.01-.02,.02-.03,.02-.02,.04-.05,.06-.07s.04-.05,.06-.07c.02-.02,.04-.04,.06-.07,.02-.02,.04-.04,.06-.06,.02-.02,.04-.04,.07-.06,.02-.02,.05-.04,.07-.06s.05-.04,.07-.05c.02-.02,.05-.03,.07-.05,.03-.02,.05-.03,.08-.05s.05-.03,.08-.04c.03-.01,.05-.03,.08-.04,.03-.01,.05-.03,.08-.04,.03-.01,.06-.02,.08-.03s.06-.02,.09-.03,.06-.02,.09-.03c.03,0,.06-.02,.09-.02h.05s.05-.03,.05-.03h.05s.06-.03,.06-.03h.05s.05-.03,.05-.03h.05s.05-.03,.05-.03Z"/>
        <path class="cls-14" d="M1.65,7.02h0v.02h0v.02s-.04,.01-.06,.02c-.02,0-.04,.01-.06,.02-.02,0-.04,.02-.06,.02-.02,0-.04,.02-.06,.03s-.04,.02-.06,.03c-.02,0-.04,.02-.07,.03-.02,.01-.05,.02-.07,.03-.02,.01-.05,.02-.07,.03-.04,.02-.08,.04-.12,.06-.04,.02-.08,.04-.12,.06-.04,.02-.07,.04-.11,.06-.03,.02-.07,.04-.1,.06s-.06,.04-.1,.06c-.03,.02-.06,.05-.09,.07-.03,.02-.06,.05-.09,.08-.03,.03-.06,.06-.08,.09,0,0-.02,.02-.02,.03,0,0-.02,.02-.02,.03s-.02,.02-.03,.03c0,.01-.02,.02-.03,.03,0,.01-.02,.02-.03,.04,0,.01-.02,.03-.03,.04,0,.01-.02,.03-.03,.04,0,.01-.02,.03-.03,.05-.01,0-.03,0-.04,0-.01,0-.02,0-.03-.01,0,0-.02-.01-.03-.02s-.01-.02-.02-.03c0,0,0-.02-.01-.03,0-.01,0-.02,0-.03,0-.01,0-.02,0-.03,0-.01,.01-.02,.02-.03,.02-.02,.04-.05,.06-.07s.04-.05,.06-.07c.02-.02,.04-.04,.06-.07,.02-.02,.04-.04,.06-.06,.02-.02,.04-.04,.07-.06,.02-.02,.05-.04,.07-.06s.05-.04,.07-.05c.02-.02,.05-.03,.07-.05,.03-.02,.05-.03,.08-.05s.05-.03,.08-.04c.03-.01,.05-.03,.08-.04,.03-.01,.05-.03,.08-.04,.03-.01,.06-.02,.08-.03s.06-.02,.09-.03,.06-.02,.09-.03c.03,0,.06-.02,.09-.02h.05s.05-.03,.05-.03h.05s.06-.03,.06-.03h.05s.05-.03,.05-.03h.05s.05-.03,.05-.03Z"/>
        <g>
          <path class="cls-12" d="M11.75,7.02v.75l.19,.04,.19,.04,.19,.04,.19,.04,.19,.04,.19,.04,.19,.04,.19,.04s0,0,0,0c0,0,0,0,0,0s0,0,0,0c0,0,0,0,0,0,0,0,0,0,0,0h0s0,0,0,0h0s.02,0,.04,0c.01,0,.02,0,.03-.01,.01,0,.02-.01,.03-.02s.01-.02,.02-.03c0,0,0-.02,.01-.03,0-.01,0-.02,0-.03,0-.01,0-.02,0-.03,0-.01-.01-.02-.02-.03-.02-.02-.04-.05-.06-.07s-.04-.05-.06-.07c-.02-.02-.04-.04-.06-.07-.02-.02-.04-.04-.06-.06-.02-.02-.04-.04-.07-.06-.02-.02-.05-.04-.07-.06s-.05-.04-.07-.05c-.02-.02-.05-.03-.07-.05-.03-.02-.05-.03-.08-.05s-.05-.03-.08-.04c-.03-.01-.05-.03-.08-.04-.03-.01-.05-.03-.08-.04-.03-.01-.06-.02-.08-.03s-.06-.02-.09-.03-.06-.02-.09-.03c-.03,0-.06-.02-.09-.02h-.05s-.05-.03-.05-.03h-.05s-.06-.03-.06-.03h-.05s-.05-.03-.05-.03h-.05s-.05-.03-.05-.03Z"/>
          <path class="cls-14" d="M11.75,7.02h0v.02h0v.02s.04,.01,.06,.02c.02,0,.04,.01,.06,.02,.02,0,.04,.02,.06,.02,.02,0,.04,.02,.06,.03s.04,.02,.06,.03c.02,0,.04,.02,.07,.03,.02,.01,.05,.02,.07,.03,.02,.01,.05,.02,.07,.03,.04,.02,.08,.04,.12,.06,.04,.02,.08,.04,.12,.06,.04,.02,.07,.04,.11,.06,.03,.02,.07,.04,.1,.06s.06,.04,.1,.06c.03,.02,.06,.05,.09,.07,.03,.02,.06,.05,.09,.08,.03,.03,.06,.06,.08,.09,0,0,.02,.02,.02,.03,0,0,.02,.02,.02,.03s.02,.02,.03,.03c0,.01,.02,.02,.03,.03,0,.01,.02,.02,.03,.04,0,.01,.02,.03,.03,.04,0,.01,.02,.03,.03,.04,0,.01,.02,.03,.03,.05,.01,0,.02,0,.04,0,.01,0,.02,0,.03-.01,.01,0,.02-.01,.03-.02s.01-.02,.02-.03c0,0,0-.02,.01-.03,0-.01,0-.02,0-.03,0-.01,0-.02,0-.03,0-.01-.01-.02-.02-.03-.02-.02-.04-.05-.06-.07s-.04-.05-.06-.07c-.02-.02-.04-.04-.06-.07-.02-.02-.04-.04-.06-.06-.02-.02-.04-.04-.07-.06-.02-.02-.05-.04-.07-.06s-.05-.04-.07-.05c-.02-.02-.05-.03-.07-.05-.03-.02-.05-.03-.08-.05s-.05-.03-.08-.04c-.03-.01-.05-.03-.08-.04-.03-.01-.05-.03-.08-.04-.03-.01-.06-.02-.08-.03s-.06-.02-.09-.03-.06-.02-.09-.03c-.03,0-.06-.02-.09-.02h-.05s-.05-.03-.05-.03h-.05s-.06-.03-.06-.03h-.05s-.05-.03-.05-.03h-.05s-.05-.03-.05-.03Z"/>
        </g>
        <g>
          <path class="cls-1" d="M2.49,28.02h.16s.16,.02,.16,.02h.16s.16,.02,.16,.02h.16s.16,.02,.16,.02h.16s.16,.02,.16,.02c0,0,.01,0,.02,0,0,0,.01,0,.02,0,0,0,.01,0,.02,0s.01,0,.01-.01c0,0,0,0,.01-.01s0-.01,0-.02c0,0,0-.01,0-.02s0-.01,0-.02v-.05s0-.05,0-.05v-.05s0-.05,0-.05v-.05s0-.05,0-.05v-.05s0-.05,0-.05H1.8s.04,.06,.06,.08c.02,.03,.05,.05,.07,.07,.03,.02,.05,.04,.08,.06,.03,.02,.06,.04,.09,.05,.03,.02,.06,.03,.09,.04,.03,.01,.06,.02,.1,.03,.03,0,.07,.02,.1,.02,.03,0,.07,0,.1,.01Z"/>
          <path class="cls-1" d="M10.91,28.02h-.16s-.16,.02-.16,.02h-.16s-.16,.02-.16,.02h-.16s-.16,.02-.16,.02h-.16s-.16,.02-.16,.02c0,0-.01,0-.02,0,0,0-.01,0-.02,0,0,0-.01,0-.02,0,0,0-.01,0-.01-.01,0,0,0,0-.01-.01,0,0,0-.01,0-.02,0,0,0-.01,0-.02s0-.01,0-.02v-.05s0-.05,0-.05v-.05s0-.05,0-.05v-.05s0-.05,0-.05v-.05s0-.05,0-.05h2.05s-.04,.06-.06,.08c-.02,.03-.05,.05-.07,.07-.03,.02-.05,.04-.08,.06-.03,.02-.06,.04-.09,.05-.03,.02-.06,.03-.09,.04-.03,.01-.06,.02-.1,.03-.03,0-.07,.02-.1,.02-.03,0-.07,0-.1,.01Z"/>
        </g>
        <polygon class="cls-5" points="10.88 13.64 9.84 13.64 8.8 13.64 7.75 13.64 6.71 13.64 5.67 13.64 4.62 13.64 3.58 13.64 2.54 13.64 2.62 13.6 2.7 13.56 2.77 13.52 2.85 13.48 2.93 13.44 3.01 13.4 3.09 13.36 3.17 13.33 4.05 13.33 4.94 13.33 5.82 13.33 6.71 13.33 7.6 13.33 8.48 13.33 9.37 13.33 10.25 13.33 10.33 13.36 10.41 13.4 10.49 13.44 10.57 13.48 10.65 13.52 10.73 13.56 10.8 13.6 10.88 13.64"/>
        <polygon class="cls-11" points="2.39 10.99 2.38 11.17 2.37 11.36 2.37 11.54 2.36 11.72 2.35 11.91 2.35 12.09 2.34 12.28 2.33 12.46 2.26 12.52 2.2 12.58 2.13 12.64 2.06 12.69 2 12.75 1.93 12.81 1.86 12.87 1.8 12.93 1.8 12.19 1.8 11.45 1.8 10.71 1.8 9.98 1.8 9.24 1.8 8.5 1.8 7.76 1.8 7.02 1.87 7.52 1.95 8.01 2.02 8.51 2.09 9.01 2.17 9.5 2.24 10 2.32 10.49 2.39 10.99"/>
        <path class="cls-3" d="M1.87,7.96l.06,.38,.06,.38,.06,.38,.06,.38,.06,.38,.06,.38,.06,.38,.06,.38v.18s-.01,.18-.01,.18v.18s-.01,.18-.01,.18v.18s-.01,.18-.01,.18v.18s-.01,.18-.01,.18l-.05,.04-.05,.04-.05,.04-.05,.04-.05,.04-.05,.04-.05,.04-.05,.04V7.96h0Zm-.07-.94v5.91l.07-.06,.07-.06,.07-.06,.07-.06,.07-.06,.07-.06,.07-.06,.07-.06v-.18s.01-.18,.01-.18v-.18s.01-.18,.01-.18v-.18s.01-.18,.01-.18v-.18s.01-.18,.01-.18l-.07-.5-.07-.5-.07-.5-.07-.5-.07-.5-.07-.5-.07-.5-.07-.5h0Z"/>
        <polygon class="cls-4" points="11.03 10.99 11.04 11.17 11.05 11.36 11.06 11.54 11.06 11.72 11.07 11.91 11.08 12.09 11.09 12.28 11.09 12.46 11.16 12.52 11.23 12.58 11.29 12.64 11.36 12.69 11.43 12.75 11.49 12.81 11.56 12.87 11.63 12.93 11.63 12.19 11.63 11.45 11.63 10.71 11.63 9.98 11.63 9.24 11.63 8.5 11.63 7.76 11.63 7.02 11.55 7.52 11.48 8.01 11.4 8.51 11.33 9.01 11.26 9.5 11.18 10 11.11 10.49 11.03 10.99"/>
        <path class="cls-3" d="M11.56,7.96v4.81l-.05-.04-.05-.04-.05-.04-.05-.04-.05-.04-.05-.04-.05-.04-.05-.04v-.18s-.01-.18-.01-.18v-.18s-.01-.18-.01-.18v-.18s-.01-.18-.01-.18v-.18s-.01-.18-.01-.18l.06-.38,.06-.38,.06-.38,.06-.38,.06-.38,.06-.38,.06-.38,.06-.38h0Zm.07-.94l-.07,.5-.07,.5-.07,.5-.07,.5-.07,.5-.07,.5-.07,.5-.07,.5v.18s.01,.18,.01,.18v.18s.01,.18,.01,.18v.18s.01,.18,.01,.18v.18s.01,.18,.01,.18l.07,.06,.07,.06,.07,.06,.07,.06,.07,.06,.07,.06,.07,.06,.07,.06V7.02h0Z"/>
        <path class="cls-2" d="M3.39,.81l-.03,.09-.03,.09-.03,.09-.03,.09-.03,.09-.03,.09-.03,.09-.03,.09s0,.01,0,.02c0,0,0,.01-.01,.02,0,0,0,.01-.01,.02,0,0-.01,.01-.02,.02,0,0-.01,.01-.02,.01,0,0-.01,0-.02,.01,0,0-.01,0-.02,.01,0,0-.02,0-.02,0l-.14,.03-.14,.03-.14,.03-.14,.03-.14,.03-.14,.03-.14,.03-.14,.03s-.03,0-.04,0c-.01,0-.03,0-.04,0-.01,0-.03,0-.04-.01-.01,0-.02-.01-.04-.02-.01,0-.02-.02-.03-.03,0-.01-.02-.02-.02-.04,0-.01-.01-.03-.01-.04,0-.01,0-.03,0-.04v-.29s0-.01,0-.02c0,0,0-.01,0-.02,0,0,0-.01,0-.02s0-.01,0-.02c0,0,0-.01,0-.02,0,0,0-.01,0-.02,0,0,0-.01,0-.02,0,0,0-.01,0-.02,0,0,0-.01,0-.02,0,0,0-.01,0-.02,0,0,0-.01,0-.02s0-.01,0-.02,0-.01,0-.02c0,0,0-.01,0-.02,0,0,0,0,0-.01s0,0,0-.01l.03-.05,.03-.05,.03-.05,.03-.05,.03-.05,.03-.05,.03-.05,.03-.05s.01-.02,.02-.02c0,0,.01-.02,.02-.02s.01-.02,.02-.02c0,0,.01-.01,.02-.02,0,0,.01-.01,.02-.02,0,0,.02-.01,.02-.02,0,0,.02-.01,.02-.02,0,0,.02-.01,.03-.02,0,0,.02,0,.03-.01,0,0,.02,0,.03-.01s.02,0,.03-.01,.02,0,.03,0c0,0,.02,0,.03,0,0,0,.02,0,.03,0,0,0,.02,0,.03,0,.01,0,.02,0,.03,0h.8s.03,0,.05,0c.02,0,.03,0,.04,.02,.01,0,.03,.02,.04,.03,.01,0,.02,.02,.03,.03s.02,.03,.02,.04c0,.01,0,.03,.01,.04s0,.03,0,.05c0,.02,0,.03-.01,.05Z"/>
        <path class="cls-2" d="M10.02,.81l.03,.09,.03,.09,.03,.09,.03,.09,.03,.09,.03,.09,.03,.09,.03,.09s0,.01,0,.02c0,0,0,.01,.01,.02,0,0,0,.01,.01,.02,0,0,.01,.01,.02,.02s.01,.01,.02,.01c0,0,.01,0,.02,.01,0,0,.01,0,.02,.01,0,0,.02,0,.02,0l.14,.03,.14,.03,.14,.03,.14,.03,.14,.03,.14,.03,.14,.03,.14,.03s.03,0,.04,0c.01,0,.03,0,.04,0,.01,0,.03,0,.04-.01,.01,0,.02-.01,.04-.02,.01,0,.02-.02,.03-.03,0-.01,.02-.02,.02-.04,0-.01,.01-.03,.01-.04s0-.03,0-.04v-.29s0-.01,0-.02c0,0,0-.01,0-.02,0,0,0-.01,0-.02s0-.01,0-.02,0-.01,0-.02c0,0,0-.01,0-.02,0,0,0-.01,0-.02,0,0,0-.01,0-.02,0,0,0-.01,0-.02,0,0,0-.01,0-.02,0,0,0-.01,0-.02,0,0,0-.01,0-.02,0,0,0-.01,0-.02,0,0,0-.01,0-.02,0,0,0,0,0-.01s0,0,0-.01l-.03-.05-.03-.05-.03-.05-.03-.05-.03-.05-.03-.05-.03-.05-.03-.05s-.01-.02-.02-.02c0,0-.01-.02-.02-.02,0,0-.01-.02-.02-.02,0,0-.01-.01-.02-.02s-.01-.01-.02-.02c0,0-.02-.01-.02-.02s-.02-.01-.02-.02c0,0-.02-.01-.03-.02,0,0-.02,0-.03-.01,0,0-.02,0-.03-.01s-.02,0-.03-.01-.02,0-.03,0c0,0-.02,0-.03,0s-.02,0-.03,0c-.01,0-.02,0-.03,0,0,0-.02,0-.03,0h-.8s-.03,0-.05,0c-.01,0-.03,0-.04,.02-.01,0-.03,.02-.04,.03-.01,0-.02,.02-.03,.03,0,.01-.02,.03-.02,.04,0,.01,0,.03-.01,.04s0,.03,0,.05c0,.02,0,.03,.01,.05Z"/>
        <path class="cls-9" d="M5.11,6.5s-.03,0-.04,0-.03,0-.04,0h-.04s-.03,0-.04,0c-.01,0-.03,0-.04,0-.01,0-.03,0-.04,0-.01,0-.03,0-.04,0-.01,0-.03,0-.04,0,0,0-.01,0-.02,0,0,0-.01,0-.02,0s-.01,0-.02,0c0,0-.01,0-.02,0,0,0-.01,0-.02,0,0,0-.01,0-.02,0h-.02s-.01,0-.02,0c0,0,0,0,0,0,0,0,0,0,0,0,0,0,0,0,0,0,0,0,0,0,0,0,0,0,0,0,0,0,0,0,0,0,0,0,0,0,0,0,0,0,0,0,0,0,0,0l.03-.75,.03-.75,.03-.75,.03-.75,.03-.75,.03-.75,.03-.75,.03-.75h.29v.74s0,.74,0,.74v.74s0,.74,0,.74v.74s0,.74,0,.74v.74s0,.74,0,.74Z"/>
        <path class="cls-6" d="M8.81,6.55h0s-.01,0-.02,0-.01,0-.02,0c0,0-.01,0-.02,0,0,0-.01,0-.02,0s-.01,0-.02,0c0,0-.01,0-.02,0,0,0-.01,0-.02,0,0,0-.01,0-.02,0,0,0,0,0,0,0,0,0,0,0,0,0,0,0,0,0,0,0,0,0,0,0,0,0,0,0,0,0,0,0h0s0,0,0,0h0s-.03,0-.05,0-.03,0-.05,0c-.02,0-.03,0-.05,0-.02,0-.03,0-.05,0-.02,0-.03,0-.05,0-.02,0-.03,0-.05,0s-.03,0-.05,0c-.02,0-.03,0-.05,0h0s0-.74,0-.74v-.74s0-.74,0-.74v-.74s0-.74,0-.74v-.74s0-.74,0-.74V.56h.29l.03,.75,.03,.75,.03,.75,.03,.75,.03,.75,.03,.75,.03,.75,.03,.75Z"/>
        <path class="cls-5" d="M11.33,6.97c-.01,.08-.03,.16-.04,.24-.01,.08-.03,.16-.04,.24-.01,.08-.03,.16-.04,.24-.01,.08-.03,.16-.04,.24s-.03,.16-.04,.24c-.01,.08-.03,.16-.04,.24-.01,.08-.03,.16-.04,.24-.01,.08-.03,.16-.04,.24-.01,.08-.03,.16-.04,.24s-.03,.16-.04,.24c-.01,.08-.03,.16-.04,.24s-.03,.16-.04,.24c-.01,.08-.03,.16-.04,.24-.01,.08-.03,.16-.04,.24-.01,.08-.03,.16-.04,.24-.01,.08-.03,.16-.04,.24-.12-.04-.24-.07-.37-.11-.13-.04-.26-.07-.4-.1s-.29-.07-.44-.1c-.15-.03-.31-.06-.48-.09-.16-.03-.33-.05-.51-.08s-.36-.04-.54-.06c-.19-.02-.38-.03-.57-.04-.2,0-.4-.01-.6-.01h-.07c-.2,0-.4,0-.59,.02-.19,0-.38,.02-.56,.04-.18,.02-.36,.04-.53,.06-.17,.02-.34,.05-.5,.08-.16,.03-.32,.06-.47,.09-.15,.03-.3,.06-.44,.1-.14,.03-.27,.07-.4,.1-.13,.03-.25,.07-.36,.11-.01-.08-.03-.16-.04-.24-.01-.08-.03-.16-.04-.24-.01-.08-.03-.16-.04-.24-.01-.08-.03-.16-.04-.24-.01-.08-.03-.16-.04-.24l-.04-.24c-.01-.08-.03-.16-.04-.24s-.03-.16-.04-.24c-.01-.08-.03-.16-.04-.24-.01-.08-.03-.16-.04-.24-.01-.08-.03-.16-.04-.24-.01-.08-.03-.16-.04-.24-.01-.08-.03-.16-.04-.24s-.03-.16-.04-.24c-.01-.08-.03-.16-.04-.24-.01-.08-.03-.16-.04-.24,.15-.03,.31-.07,.47-.1s.33-.07,.5-.1c.17-.03,.35-.06,.53-.09s.37-.05,.56-.08c.19-.02,.39-.05,.59-.07,.2-.02,.41-.04,.62-.05,.21-.01,.43-.03,.65-.03,.22,0,.45-.01,.68-.01h.04c.23,0,.45,0,.68,.01,.22,0,.44,.02,.65,.03,.21,.01,.42,.03,.62,.05s.4,.04,.59,.07c.19,.02,.38,.05,.56,.08s.36,.06,.53,.09c.17,.03,.34,.06,.5,.1,.16,.03,.32,.07,.47,.1Z"/>
        <path class="cls-15" d="M6.7,8.63c0,.07,0,.14,0,.2s0,.13,0,.2c0,.07,0,.13,0,.2,0,.07,0,.13,0,.2,0,.07,0,.13,0,.2,0,.07,0,.13,0,.2,0,.06,0,.13,0,.19,0,.06,0,.13,0,.19-.2,0-.4,0-.59,.02-.19,0-.38,.02-.56,.04-.18,.02-.36,.04-.53,.06-.17,.02-.34,.05-.5,.08-.16,.03-.32,.06-.47,.09-.15,.03-.3,.06-.44,.1-.14,.03-.27,.07-.4,.1-.13,.03-.25,.07-.36,.11-.01-.08-.03-.16-.04-.24-.01-.08-.03-.16-.04-.24-.01-.08-.03-.16-.04-.24-.01-.08-.03-.16-.04-.24-.01-.08-.03-.16-.04-.24l-.04-.24c-.01-.08-.03-.16-.04-.24s-.03-.16-.04-.24c-.01-.08-.03-.16-.04-.24-.01-.08-.03-.16-.04-.24-.01-.08-.03-.16-.04-.24-.01-.08-.03-.16-.04-.24-.01-.08-.03-.16-.04-.24s-.03-.16-.04-.24c-.01-.08-.03-.16-.04-.24-.01-.08-.03-.16-.04-.24,.15-.03,.31-.07,.47-.1s.33-.07,.5-.1c.17-.03,.35-.06,.53-.09s.37-.05,.56-.08c.19-.02,.39-.05,.59-.07,.2-.02,.41-.04,.62-.05,.21-.01,.43-.03,.65-.03,.22,0,.45-.01,.68-.01,0,.09,0,.18,0,.26,0,.09,0,.18,0,.27,0,.09,0,.18,0,.27,0,.09,0,.18,0,.27,0,.09,0,.18,0,.27,0,.09,0,.18,0,.28,0,.09,0,.19,0,.28,0,.09,0,.19,0,.28Z"/>
        <path class="cls-15" d="M6.71,13.33s0,.03,0,.04c0,.01,0,.03,0,.04,0,.01,0,.03,0,.04s0,.03,0,.04v.04s0,.03,0,.04c0,.01,0,.03,0,.04,0,.01,0,.03,0,.04H2.54l.08-.04,.08-.04,.08-.04,.08-.04,.08-.04,.08-.04,.08-.04,.08-.04h3.54Z"/>
        <path class="cls-3" d="M2.75,10.86h0s0-.01,0-.01h0s0-.01,0-.01h0s0-.01,0-.01h0s0-.01,0-.01c-.01-.08-.03-.16-.04-.24-.01-.08-.03-.16-.04-.24-.01-.08-.03-.16-.04-.24-.01-.08-.03-.16-.04-.24-.01-.08-.03-.16-.04-.24-.01-.08-.03-.16-.04-.24-.01-.08-.03-.16-.04-.24-.01-.08-.03-.16-.04-.24-.01-.08-.03-.16-.04-.24-.01-.08-.03-.16-.04-.24-.01-.08-.03-.16-.04-.24s-.03-.16-.04-.24c-.01-.08-.03-.16-.04-.24s-.03-.16-.04-.24c-.01-.08-.03-.16-.04-.24-.01-.08-.03-.16-.04-.24h0s0-.01,0-.01h0s0-.01,0-.01h0s0-.01,0-.01h0s0-.01,0-.01h0s0,0,0,0h0s0,0,0,0h0s0,0,0,0h0s0,0,0,0c.19-.04,.38-.09,.57-.12s.38-.07,.57-.11c.19-.03,.38-.06,.58-.09,.19-.03,.39-.05,.58-.07s.39-.04,.58-.06,.39-.03,.58-.04c.19-.01,.39-.02,.58-.02,.19,0,.39,0,.58,0h.02c.19,0,.39,0,.58,0,.19,0,.39,.01,.58,.03,.19,.01,.39,.03,.58,.04,.19,.02,.39,.04,.58,.06,.19,.02,.38,.05,.58,.07s.38,.06,.57,.09c.19,.03,.38,.07,.57,.11,.19,.04,.38,.08,.57,.12h0s0,0,0,0h0s0,0,0,0h0s0,0,0,0h0s0,0,0,0h0s0,.01,0,.01h0s0,.01,0,.01h0s0,.01,0,.01h0s0,.01,0,.01c-.01,.08-.03,.16-.04,.24-.01,.08-.03,.16-.04,.24-.01,.08-.03,.16-.04,.24s-.03,.16-.04,.24c-.01,.08-.03,.16-.04,.24s-.03,.16-.04,.24c-.01,.08-.03,.16-.04,.24-.01,.08-.03,.16-.04,.24-.01,.08-.03,.16-.04,.24-.01,.08-.03,.16-.04,.24-.01,.08-.03,.16-.04,.24-.01,.08-.03,.16-.04,.24-.01,.08-.03,.16-.04,.24-.01,.08-.03,.16-.04,.24s-.03,.16-.04,.24-.03,.16-.04,.24h0s0,.01,0,.01h0s0,.01,0,.01h0s0,.01,0,.01h0s0,.01,0,.01h0s0,0,0,0h0s0,0,0,0h0s0,0,0,0h0s0,0,0,0c-.16-.05-.32-.09-.48-.14-.16-.04-.32-.08-.48-.12-.16-.04-.32-.07-.48-.1-.16-.03-.32-.06-.49-.08-.16-.02-.33-.05-.49-.06-.16-.02-.33-.03-.49-.05s-.33-.02-.49-.03c-.16,0-.33,0-.5,0h0c-.17,0-.33,0-.5,0-.17,0-.33,.02-.5,.03-.16,.01-.33,.03-.49,.05s-.33,.04-.49,.06c-.16,.02-.33,.05-.49,.08s-.32,.06-.48,.1-.32,.08-.48,.12c-.16,.04-.32,.09-.48,.14h0s0,0,0,0h0s0,0,0,0h0s0,0,0,0h0s0,0,0,0Zm3.96-.71h0c.16,0,.33,0,.49,0s.33,.02,.49,.03c.16,.01,.33,.03,.49,.05,.16,.02,.32,.04,.49,.06,.16,.02,.32,.05,.48,.08,.16,.03,.32,.06,.48,.1s.32,.07,.48,.12,.32,.09,.47,.13l.04-.23c.01-.08,.03-.15,.04-.23,.01-.08,.03-.15,.04-.23,.01-.08,.03-.15,.04-.23,.01-.08,.03-.15,.04-.23,.01-.08,.03-.15,.04-.23,.01-.08,.03-.15,.04-.23s.03-.15,.04-.23c.01-.08,.03-.16,.04-.23s.03-.16,.04-.23c.01-.08,.03-.16,.04-.23,.01-.08,.03-.16,.04-.23s.03-.16,.04-.23c.01-.08,.03-.15,.04-.23,.01-.08,.03-.15,.04-.23,.01-.08,.03-.15,.04-.23-.19-.04-.37-.08-.56-.12-.19-.04-.37-.07-.56-.1-.19-.03-.38-.06-.57-.09s-.38-.05-.57-.07c-.19-.02-.38-.04-.57-.06-.19-.02-.38-.03-.57-.04-.19-.01-.38-.02-.57-.02-.19,0-.38,0-.57,0-.19,0-.39,0-.58,0s-.38,.01-.58,.02c-.19,.01-.38,.02-.58,.04-.19,.02-.38,.03-.57,.06-.19,.02-.38,.05-.57,.07-.19,.03-.38,.06-.57,.09s-.38,.07-.57,.1c-.19,.04-.38,.08-.56,.12l.04,.23c.01,.08,.03,.15,.04,.23,.01,.08,.03,.15,.04,.23,.01,.08,.03,.16,.04,.23s.03,.16,.04,.23c.01,.08,.03,.16,.04,.23,.01,.08,.03,.16,.04,.23,.01,.08,.03,.16,.04,.23,.01,.08,.03,.15,.04,.23s.03,.15,.04,.23c.01,.08,.03,.15,.04,.23,.01,.08,.03,.15,.04,.23,.01,.08,.03,.15,.04,.23,.01,.08,.03,.15,.04,.23s.03,.15,.04,.23l.04,.23c.16-.05,.32-.09,.47-.13,.16-.04,.32-.08,.48-.12s.32-.07,.48-.1c.16-.03,.32-.06,.48-.08,.16-.02,.32-.04,.49-.06s.33-.03,.49-.04c.16-.01,.33-.02,.49-.03,.16,0,.33,0,.49,0Z"/>
        <path class="cls-8" d="M9.05,.56H4.26s-.01,0-.01,0c0,0,0,0-.01,0,0,0,0,0,0,0,0,0,0,0,0-.01s0,0,0-.01c0,0,0,0,0-.01,0,0,0,0,0-.01,0,0,0,0,.01,0l.04-.03,.04-.03,.04-.03,.04-.03,.04-.03,.04-.03,.04-.03,.04-.03s0,0,0,0c0,0,0,0,0,0,0,0,0,0,0,0s0,0,.01,0c0,0,0,0,.01,0,0,0,0,0,.01,0s0,0,.01,0c0,0,0,0,.01,0h4.02s0,0,.01,0c0,0,0,0,.01,0s0,0,.01,0c0,0,0,0,.01,0,0,0,0,0,0,0,0,0,0,0,0,0,0,0,0,0,0,0s0,0,0,0l.04,.03,.04,.03,.04,.03,.04,.03,.04,.03,.04,.03,.04,.03,.04,.03s0,0,.01,0,0,0,0,.01c0,0,0,0,0,.01,0,0,0,0,0,.01s0,0,0,.01c0,0,0,0,0,0,0,0,0,0-.01,0,0,0,0,0-.01,0Z"/>
        <path class="cls-3" d="M8.67,.32s0,0,0,0h0s0,0,0,0c0,0,0,0,0,0,0,0,0,0,0,0s0,0,0,0c0,0,0,0,0,0s0,0,0,0l.03,.02,.03,.02,.03,.02,.03,.02,.03,.02,.03,.02,.03,.02,.03,.02H4.36l.03-.02,.03-.02,.03-.02,.03-.02,.03-.02,.03-.02,.03-.02,.03-.02s0,0,0,0,0,0,0,0c0,0,0,0,0,0,0,0,0,0,0,0,0,0,0,0,0,0,0,0,0,0,0,0,0,0,0,0,0,0,0,0,0,0,0,0h4.02Zm0-.07H4.64s0,0-.01,0c0,0,0,0-.01,0s0,0-.01,0c0,0,0,0-.01,0,0,0,0,0-.01,0s0,0,0,0c0,0,0,0,0,0,0,0,0,0,0,0l-.04,.03-.04,.03-.04,.03-.04,.03-.04,.03-.04,.03-.04,.03-.04,.03s0,0-.01,0c0,0,0,0,0,.01,0,0,0,0,0,.01,0,0,0,0,0,.01s0,0,0,.01c0,0,0,0,0,0,0,0,0,0,.01,0,0,0,0,0,.01,0h4.79s.01,0,.01,0c0,0,0,0,.01,0,0,0,0,0,0,0,0,0,0,0,0-.01s0,0,0-.01c0,0,0,0,0-.01,0,0,0,0,0-.01s0,0-.01,0l-.04-.03-.04-.03-.04-.03-.04-.03-.04-.03-.04-.03-.04-.03-.04-.03s0,0,0,0,0,0,0,0c0,0,0,0,0,0,0,0,0,0,0,0,0,0,0,0-.01,0,0,0,0,0-.01,0s0,0-.01,0c0,0,0,0-.01,0h0Z"/>
        <path class="cls-7" d="M11.62,27.63H1.78s-.06,0-.09,0c-.03,0-.06,0-.09-.01-.03,0-.06-.01-.09-.02-.03,0-.06-.02-.08-.03-.03-.01-.05-.02-.08-.04-.03-.01-.05-.03-.08-.05-.02-.02-.05-.03-.07-.05-.02-.02-.04-.04-.06-.06-.02-.02-.04-.04-.06-.06-.02-.02-.04-.05-.05-.07-.02-.02-.03-.05-.05-.08-.01-.03-.03-.05-.04-.08-.01-.03-.02-.06-.03-.08,0-.03-.02-.06-.02-.09s-.01-.06-.01-.09c0-.03,0-.06,0-.09V15.57s0-.06,0-.09c0-.03,0-.06,.01-.09s.01-.06,.02-.09c0-.03,.02-.06,.03-.08,.01-.03,.02-.05,.04-.08,.01-.03,.03-.05,.05-.08,.02-.02,.03-.05,.05-.07,.02-.02,.04-.04,.06-.06,.02-.02,.04-.04,.06-.06,.02-.02,.05-.04,.07-.05,.02-.02,.05-.03,.08-.05,.03-.01,.05-.03,.08-.04,.03-.01,.06-.02,.08-.03,.03,0,.06-.02,.09-.02,.03,0,.06-.01,.09-.01,.03,0,.06,0,.09,0H11.62s.06,0,.09,0,.06,0,.09,.01c.03,0,.06,.01,.09,.02,.03,0,.06,.02,.08,.03,.03,.01,.05,.02,.08,.04,.03,.01,.05,.03,.08,.05,.02,.02,.05,.03,.07,.05,.02,.02,.04,.04,.06,.06,.02,.02,.04,.04,.06,.06,.02,.02,.04,.05,.05,.07,.02,.02,.03,.05,.05,.08,.01,.03,.03,.05,.04,.08,.01,.03,.02,.06,.03,.08,0,.03,.02,.06,.02,.09s.01,.06,.01,.09c0,.03,0,.06,0,.09v11.15s0,.06,0,.09c0,.03,0,.06-.01,.09s-.01,.06-.02,.09c0,.03-.02,.06-.03,.08-.01,.03-.02,.05-.04,.08-.01,.03-.03,.05-.05,.08-.02,.02-.03,.05-.05,.07-.02,.02-.04,.04-.06,.06-.02,.02-.04,.04-.06,.06-.02,.02-.05,.04-.07,.05-.02,.02-.05,.03-.08,.05-.03,.01-.05,.03-.08,.04-.03,.01-.06,.02-.08,.03-.03,0-.06,.02-.09,.02-.03,0-.06,.01-.09,.01s-.06,0-.09,0Z"/>
        <path class="cls-10" d="M1.78,27.07s-.02,0-.04,0c-.01,0-.02,0-.03,0-.01,0-.02,0-.03,0-.01,0-.02,0-.03-.01s-.02,0-.03-.01c-.01,0-.02-.01-.03-.02,0,0-.02-.01-.03-.02,0,0-.02-.02-.03-.02s-.02-.02-.02-.03-.01-.02-.02-.03-.01-.02-.02-.03-.01-.02-.01-.03,0-.02-.01-.03c0-.01,0-.02,0-.03,0-.01,0-.02,0-.03,0-.01,0-.02,0-.04V15.57s0-.02,0-.04c0-.01,0-.02,0-.03,0-.01,0-.02,0-.03,0-.01,0-.02,.01-.03s0-.02,.01-.03c0-.01,.01-.02,.02-.03,0,0,.01-.02,.02-.03,0,0,.02-.02,.02-.03s.02-.02,.03-.02c0,0,.02-.01,.03-.02,0,0,.02-.01,.03-.02,.01,0,.02-.01,.03-.01s.02,0,.03-.01c.01,0,.02,0,.03,0,.01,0,.02,0,.03,0,.01,0,.02,0,.04,0H11.62s.02,0,.04,0c.01,0,.02,0,.03,0,.01,0,.02,0,.03,0,.01,0,.02,0,.03,.01,.01,0,.02,0,.03,.01,.01,0,.02,.01,.03,.02,0,0,.02,.01,.03,.02,0,0,.02,.02,.03,.02,0,0,.02,.02,.02,.03,0,0,.01,.02,.02,.03s.01,.02,.02,.03c0,.01,.01,.02,.01,.03s0,.02,.01,.03c0,.01,0,.02,0,.03,0,.01,0,.02,0,.03s0,.02,0,.04v11.15s0,.02,0,.04c0,.01,0,.02,0,.03,0,.01,0,.02,0,.03,0,.01,0,.02-.01,.03s0,.02-.01,.03c0,.01-.01,.02-.02,.03,0,0-.01,.02-.02,.03,0,0-.02,.02-.02,.03s-.02,.02-.03,.02c0,0-.02,.01-.03,.02,0,0-.02,.01-.03,.02s-.02,.01-.03,.01-.02,0-.03,.01c-.01,0-.02,0-.03,0-.01,0-.02,0-.03,0-.01,0-.02,0-.04,0H1.78Z"/>
        <path class="cls-13" d="M11.97,15.57v.71H2.85s-.02,0-.03,0c-.01,0-.02,0-.03,0-.01,0-.02,0-.03,0-.01,0-.02,0-.03,.01s-.02,0-.03,.01c-.01,0-.02,.01-.03,.02,0,0-.02,.01-.03,.02,0,0-.02,.02-.03,.02,0,0-.02,.02-.02,.03,0,0-.01,.02-.02,.03,0,0-.01,.02-.02,.03s-.01,.02-.01,.03c0,.01,0,.02-.01,.03,0,.01,0,.02,0,.03,0,.01,0,.02,0,.03,0,.01,0,.02,0,.04v10.44h-.71s-.02,0-.04,0c-.01,0-.02,0-.03,0-.01,0-.02,0-.03,0-.01,0-.02,0-.03-.01-.01,0-.02,0-.03-.01-.01,0-.02-.01-.03-.02,0,0-.02-.01-.03-.02s-.02-.02-.03-.02c0,0-.02-.02-.02-.03,0,0-.01-.02-.02-.03,0,0-.01-.02-.02-.03,0-.01-.01-.02-.01-.03,0-.01,0-.02-.01-.03,0-.01,0-.02,0-.03,0-.01,0-.02,0-.03,0-.01,0-.02,0-.04V15.57s0-.02,0-.04c0-.01,0-.02,0-.03s0-.02,0-.03c0-.01,0-.02,.01-.03,0-.01,0-.02,.01-.03,0-.01,.01-.02,.02-.03,0,0,.01-.02,.02-.03,0,0,.02-.02,.02-.03,0,0,.02-.02,.03-.02s.02-.01,.03-.02c0,0,.02-.01,.03-.02,.01,0,.02-.01,.03-.01s.02,0,.03-.01c.01,0,.02,0,.03,0s.02,0,.03,0c.01,0,.02,0,.04,0H11.62s.02,0,.04,0c.01,0,.02,0,.03,0s.02,0,.03,0c.01,0,.02,0,.03,.01,.01,0,.02,0,.03,.01,.01,0,.02,.01,.03,.02,0,0,.02,.01,.03,.02s.02,.02,.03,.02c0,0,.02,.02,.02,.03s.01,.02,.02,.03,.01,.02,.02,.03c0,.01,.01,.02,.01,.03,0,.01,0,.02,.01,.03,0,.01,0,.02,0,.03s0,.02,0,.03c0,.01,0,.02,0,.04Z"/>
        <g>
          <path class="cls-3" d="M11.47,6.44h0s-.02,0-.03,0c-.01,0-.02,0-.03,0s-.02,0-.03-.01c0,0-.02-.01-.02-.02s-.01-.01-.02-.02c0,0-.01-.02-.01-.03s0-.02,0-.03c0-.01,0-.02,0-.03h0v-.02h0v-.02h0v-.02h0v-.02s0-.02,0-.03c0-.01,0-.02,0-.03s0-.02,.01-.03,.01-.02,.02-.02,.01-.01,.02-.02c0,0,.02-.01,.03-.01,0,0,.02,0,.03,0,.01,0,.02,0,.03,0h0s.02,0,.03,0c.01,0,.02,0,.03,0,0,0,.02,0,.03,.01,0,0,.02,.01,.02,.02,0,0,.01,.01,.02,.02,0,0,.01,.02,.01,.03,0,0,0,.02,0,.03,0,.01,0,.02,0,.03h0v.02h0v.02h0v.02h0v.02s0,.02,0,.03,0,.02,0,.03c0,0,0,.02-.01,.03,0,0-.01,.02-.02,.02,0,0-.01,.01-.02,.02,0,0-.02,.01-.03,.01s-.02,0-.03,0c-.01,0-.02,0-.03,0Z"/>
          <path class="cls-3" d="M11.54,6.24v.17s-.01,.17-.01,.17v.17s-.01,.17-.01,.17v.17s-.01,.17-.01,.17v.17s-.01,.17-.01,.17c0,0,0,0,0,0,0,0,0,0,0,0,0,0,0,0,0,0,0,0,0,0,0,0,0,0,0,0,0,0,0,0,0,0,0,0,0,0,0,0,0,0,0,0,0,0,0,0,0,0,0,0,0,0,0,0,0,0,0,0,0,0,0,0,0,0,0,0,0,0,0,0,0,0,0,0,0,0,0,0,0,0,0,0,0,0,0,0,0,0,0,0,0,0,0,0v-.17s-.01-.17-.01-.17v-.17s-.01-.17-.01-.17v-.17s-.01-.17-.01-.17v-.17s-.01-.17-.01-.17c0,0,0,0,0-.01,0,0,0,0,0-.01,0,0,0,0,0-.01,0,0,0,0,0-.01s0,0,0,0c0,0,0,0,.01,0,0,0,0,0,.01,0,0,0,0,0,.01,0,0,0,0,0,.01,0,0,0,0,0,.01,0,0,0,0,0,.01,0,0,0,0,0,.01,0s0,0,0,0c0,0,0,0,0,.01,0,0,0,0,0,.01,0,0,0,0,0,.01h0Z"/>
        </g>
        <g>
          <path class="cls-3" d="M1.95,6.44h0s-.02,0-.03,0c-.01,0-.02,0-.03,0s-.02,0-.03-.01-.02-.01-.02-.02-.01-.01-.02-.02c0,0-.01-.02-.01-.03s0-.02,0-.03c0-.01,0-.02,0-.03h0v-.02h0v-.02h0v-.02h0v-.02s0-.02,0-.03c0-.01,0-.02,0-.03s0-.02,.01-.03,.01-.02,.02-.02,.01-.01,.02-.02c0,0,.02-.01,.03-.01,0,0,.02,0,.03,0,.01,0,.02,0,.03,0h0s.02,0,.03,0c.01,0,.02,0,.03,0,0,0,.02,0,.03,.01,0,0,.02,.01,.02,.02s.01,.01,.02,.02c0,0,.01,.02,.01,.03,0,0,0,.02,0,.03,0,.01,0,.02,0,.03h0v.02h0v.02h0v.02h0v.02s0,.02,0,.03c0,.01,0,.02,0,.03,0,0,0,.02-.01,.03,0,0-.01,.02-.02,.02s-.01,.01-.02,.02-.02,.01-.03,.01-.02,0-.03,0c-.01,0-.02,0-.03,0Z"/>
          <path class="cls-3" d="M2.02,6.24v.17s-.01,.17-.01,.17v.17s-.01,.17-.01,.17v.17s-.01,.17-.01,.17v.17s-.01,.17-.01,.17c0,0,0,0,0,0,0,0,0,0,0,0,0,0,0,0,0,0,0,0,0,0,0,0,0,0,0,0,0,0,0,0,0,0,0,0,0,0,0,0,0,0,0,0,0,0,0,0,0,0,0,0,0,0,0,0,0,0,0,0s0,0,0,0c0,0,0,0,0,0,0,0,0,0,0,0s0,0,0,0c0,0,0,0,0,0,0,0,0,0,0,0v-.17s-.01-.17-.01-.17v-.17s-.01-.17-.01-.17v-.17s-.01-.17-.01-.17v-.17s-.01-.17-.01-.17c0,0,0,0,0-.01,0,0,0,0,0-.01,0,0,0,0,0-.01,0,0,0,0,0-.01s0,0,0,0c0,0,0,0,.01,0,0,0,0,0,.01,0,0,0,0,0,.01,0,0,0,0,0,.01,0,0,0,0,0,.01,0,0,0,0,0,.01,0,0,0,0,0,.01,0,0,0,0,0,0,0,0,0,0,0,0,.01,0,0,0,0,0,.01,0,0,0,0,0,.01h0Z"/>
        </g>
        <path class="cls-8" d="M9.34,6.01v.03s0,.03,0,.03v.03s0,.03,0,.03v.03s0,.03,0,.03v.03s0,.03,0,.03c0,0,0,0,0,0,0,0,0,0,0,0,0,0,0,0,0,0,0,0,0,0,0,0s0,0,0,0c0,0,0,0,0,0,0,0,0,0,0,0,0,0,0,0,0,0l.16,.02,.16,.02,.16,.02,.16,.02,.16,.02,.16,.02,.16,.02,.16,.02s0,0,.01,0c0,0,0,0,.01,0,0,0,0,0,.01,0s0,0,0,0c0,0,0,0,0,0,0,0,0,0,0,0,0,0,0,0,0-.01,0,0,0,0,0-.01v-.02s0-.02,0-.02v-.02s0-.02,0-.02v-.02s0-.02,0-.02v-.02s0-.02,0-.02c0,0,0,0,0,0,0,0,0,0,0,0,0,0,0,0,0,0,0,0,0,0,0,0s0,0,0,0,0,0,0,0c0,0,0,0,0,0,0,0,0,0,0,0l-.17-.04-.17-.04-.17-.04-.17-.04-.17-.04-.17-.04-.17-.04-.17-.04s0,0-.01,0c0,0,0,0-.01,0,0,0,0,0-.01,0s0,0-.01,0c0,0,0,0,0,0,0,0,0,0,0,.01s0,0,0,.01c0,0,0,0,0,.01Z"/>
        <path class="cls-8" d="M4.07,6.01v.03s0,.03,0,.03v.03s0,.03,0,.03v.03s0,.03,0,.03v.03s0,.03,0,.03c0,0,0,0,0,0s0,0,0,0c0,0,0,0,0,0,0,0,0,0,0,0s0,0,0,0,0,0,0,0c0,0,0,0,0,0,0,0,0,0,0,0l-.16,.02-.16,.02-.16,.02-.16,.02-.16,.02-.16,.02-.16,.02-.16,.02s0,0-.01,0c0,0,0,0-.01,0,0,0,0,0-.01,0s0,0,0,0c0,0,0,0,0,0,0,0,0,0,0,0,0,0,0,0,0-.01,0,0,0,0,0-.01v-.02s0-.02,0-.02v-.02s0-.02,0-.02v-.02s0-.02,0-.02v-.02s0-.02,0-.02c0,0,0,0,0,0s0,0,0,0c0,0,0,0,0,0,0,0,0,0,0,0s0,0,0,0,0,0,0,0c0,0,0,0,0,0,0,0,0,0,0,0l.17-.04,.17-.04,.17-.04,.17-.04,.17-.04,.17-.04,.17-.04,.17-.04s0,0,.01,0c0,0,0,0,.01,0,0,0,0,0,.01,0,0,0,0,0,.01,0,0,0,0,0,0,0s0,0,0,.01,0,0,0,.01c0,0,0,0,0,.01Z"/>
        <path class="cls-3" d="M10.71,6.58h0s0,0,0,0,0,0,0,0c0,0,0,0,0,0,0,0,0,0,0,0s0,0,0,0,0,0,0,0h0s-.16-.03-.16-.03l-.16-.02-.16-.02-.16-.02-.16-.02-.16-.02-.16-.02-.16-.02s-.01,0-.02,0-.01,0-.02,0c0,0-.01,0-.02-.01s0,0-.01-.01c0,0,0,0-.01-.01,0,0,0-.01,0-.02,0,0,0-.01,0-.02s0-.01,0-.02v-.03s0-.03,0-.03v-.03s0-.03,0-.03v-.03s0-.03,0-.03v-.03s0-.03,0-.03c0,0,0,0,0-.01,0,0,0,0,0-.01,0,0,0,0,0-.01,0,0,0,0,0-.01s0,0,0-.01,0,0,0-.01c0,0,0,0,0,0,0,0,0,0,0,0s0,0,.01,0c0,0,0,0,.01,0,0,0,0,0,.01,0,0,0,0,0,.01,0s0,0,.01,0c0,0,0,0,.01,0s0,0,.01,0c0,0,0,0,.01,0l.16,.04,.16,.04,.16,.04,.16,.04,.16,.04,.16,.04,.16,.04,.17,.04s.01,0,.02,0c0,0,.01,0,.02,0s0,0,.01,.01c0,0,0,0,.01,.01,0,0,0,.01,0,.02,0,0,0,.01,0,.02s0,.01,0,.02,0,.01,0,.02v.02s0,.02,0,.02v.02s0,.02,0,.02v.02s0,.02,0,.02v.02s0,.02,0,.02c0,0,0,0,0,.01,0,0,0,0,0,.01s0,0,0,.01,0,0,0,.01,0,0,0,0c0,0,0,0,0,0,0,0,0,0,0,0,0,0,0,0,0,0,0,0,0,0,0,0,0,0,0,0,0,0s0,0,0,0c0,0,0,0,0,0s0,0,0,0c0,0,0,0,0,0,0,0,0,0,0,0,0,0,0,0,0,0Zm-1.32-.58v.03s0,.03,0,.03v.03s0,.03,0,.03v.03s0,.03,0,.03v.03s0,.03,0,.03l.16,.03,.16,.03,.16,.03,.16,.03,.16,.03,.16,.03,.16,.03,.16,.03v-.02s0-.02,0-.02v-.02s0-.02,0-.02v-.02s0-.02,0-.02v-.02s0-.02,0-.02l-.17-.04-.17-.04-.17-.04-.17-.04-.17-.04-.17-.04-.17-.04-.17-.04h0s0,0,0,0h0s0,0,0,0h0s0,0,0,0h0s0,0,0,0h0s0,0,0,0h0s0,0,0,0h0s0,0,0,0h0s0,0,0,0Z"/>
        <path class="cls-3" d="M2.7,6.58s0,0,0,0c0,0,0,0,0,0,0,0,0,0,0,0,0,0,0,0,0,0s0,0,0,0c0,0,0,0,0,0s0,0,0,0c0,0,0,0,0,0,0,0,0,0,0,0s0,0,0,0c0,0,0,0,0,0,0,0,0,0,0,0s0,0,0-.01c0,0,0,0,0-.01s0,0,0-.01c0,0,0,0,0-.01v-.02s0-.02,0-.02v-.02s0-.02,0-.02v-.02s0-.02,0-.02v-.02s0-.02,0-.02c0,0,0-.01,0-.02,0,0,0-.01,0-.02s0-.01,0-.02c0,0,0-.01,0-.02,0,0,0,0,.01-.01s0,0,.01-.01,.01,0,.02,0,.01,0,.02,0l.17-.04,.17-.04,.17-.04,.17-.04,.17-.04,.17-.04,.17-.04,.17-.04s0,0,.01,0c0,0,0,0,.01,0,0,0,0,0,.01,0,0,0,0,0,.01,0s0,0,.01,0c0,0,0,0,.01,0,0,0,0,0,.01,0,0,0,0,0,.01,0,0,0,0,0,0,0s0,0,0,0,0,0,0,.01c0,0,0,0,0,.01,0,0,0,0,0,.01s0,0,0,.01c0,0,0,0,0,.01,0,0,0,0,0,.01v.03s0,.03,0,.03v.03s0,.03,0,.03v.03s0,.03,0,.03v.03s0,.03,0,.03c0,0,0,.01,0,.02s0,.01,0,.02c0,0,0,.01,0,.02,0,0,0,.01-.01,.01,0,0,0,0-.01,.01s0,0-.02,.01c0,0-.01,0-.02,0,0,0-.01,0-.02,0l-.16,.02-.16,.02-.16,.02-.16,.02-.16,.02-.16,.02-.16,.02-.16,.02h0s0,0,0,0,0,0,0,0c0,0,0,0,0,0,0,0,0,0,0,0,0,0,0,0,0,0h0s0,0,0,0Zm1.32-.58l-.17,.04-.17,.04-.17,.04-.17,.04-.17,.04-.17,.04-.17,.04-.17,.04v.02s0,.02,0,.02v.02s0,.02,0,.02v.02s0,.02,0,.02v.02s0,.02,0,.02l.16-.02,.16-.02,.16-.02,.16-.02,.16-.02,.16-.02,.16-.02,.16-.02v-.03s0-.03,0-.03v-.03s0-.03,0-.03v-.03s0-.03,0-.03v-.03s0-.03,0-.03h0s0,0,0,0,0,0,0,0c0,0,0,0,0,0,0,0,0,0,0,0,0,0,0,0,0,0,0,0,0,0,0,0Z"/>
        <g>
          <path class="cls-6" d="M10.31,11.39H3.13s-.02,0-.03,0c0,0-.02,0-.03,0,0,0-.02,0-.02-.01,0,0-.01-.01-.02-.02s-.01-.01-.02-.02,0-.02-.01-.02c0,0,0-.02,0-.03,0,0,0-.02,0-.03s0-.02,0-.03c0,0,0-.02,0-.03,0,0,0-.02,.01-.02s.01-.01,.02-.02c0,0,.01-.01,.02-.02s.02,0,.02-.01c0,0,.02,0,.03,0,0,0,.02,0,.03,0h7.18s.02,0,.03,0c0,0,.02,0,.03,0,0,0,.02,0,.02,.01,0,0,.01,.01,.02,.02,0,0,.01,.01,.02,.02s0,.02,.01,.02c0,0,0,.02,0,.03,0,0,0,.02,0,.03s0,.02,0,.03c0,0,0,.02,0,.03,0,0,0,.02-.01,.02s-.01,.01-.02,.02-.01,.01-.02,.02c0,0-.02,0-.02,.01,0,0-.02,0-.03,0,0,0-.02,0-.03,0Z"/>
          <path class="cls-6" d="M10.31,12.2H3.13s-.02,0-.03,0c0,0-.02,0-.03,0,0,0-.02,0-.02-.01,0,0-.01-.01-.02-.02s-.01-.01-.02-.02,0-.02-.01-.02c0,0,0-.02,0-.03,0,0,0-.02,0-.03s0-.02,0-.03c0,0,0-.02,0-.03,0,0,0-.02,.01-.02s.01-.01,.02-.02c0,0,.01-.01,.02-.02s.02,0,.02-.01c0,0,.02,0,.03,0,0,0,.02,0,.03,0h7.18s.02,0,.03,0c0,0,.02,0,.03,0,0,0,.02,0,.02,.01,0,0,.01,.01,.02,.02,0,0,.01,.01,.02,.02s0,.02,.01,.02c0,0,0,.02,0,.03,0,0,0,.02,0,.03s0,.02,0,.03c0,0,0,.02,0,.03,0,0,0,.02-.01,.02s-.01,.01-.02,.02-.01,.01-.02,.02c0,0-.02,0-.02,.01,0,0-.02,0-.03,0,0,0-.02,0-.03,0Z"/>
          <path class="cls-6" d="M10.31,13.01H3.13s-.02,0-.03,0c0,0-.02,0-.03,0,0,0-.02,0-.02-.01,0,0-.01-.01-.02-.02s-.01-.01-.02-.02,0-.02-.01-.02c0,0,0-.02,0-.03,0,0,0-.02,0-.03s0-.02,0-.03c0,0,0-.02,0-.03,0,0,0-.02,.01-.02s.01-.01,.02-.02c0,0,.01-.01,.02-.02s.02,0,.02-.01c0,0,.02,0,.03,0,0,0,.02,0,.03,0h7.18s.02,0,.03,0c0,0,.02,0,.03,0,0,0,.02,0,.02,.01,0,0,.01,.01,.02,.02,0,0,.01,.01,.02,.02s0,.02,.01,.02c0,0,0,.02,0,.03,0,0,0,.02,0,.03s0,.02,0,.03c0,0,0,.02,0,.03,0,0,0,.02-.01,.02s-.01,.01-.02,.02-.01,.01-.02,.02c0,0-.02,0-.02,.01,0,0-.02,0-.03,0,0,0-.02,0-.03,0Z"/>
        </g>
        <path class="cls-3" d="M10.24,13.39l.04,.02,.04,.02,.04,.02,.04,.02,.04,.02,.04,.02,.04,.02,.04,.02H2.83l.04-.02,.04-.02,.04-.02,.04-.02,.04-.02,.04-.02,.04-.02,.04-.02h7.05Zm.02-.07H3.17l-.08,.04-.08,.04-.08,.04-.08,.04-.08,.04-.08,.04-.08,.04-.08,.04H10.88l-.08-.04-.08-.04-.08-.04-.08-.04-.08-.04-.08-.04-.08-.04-.08-.04h0Z"/>
      </g>
    </g>
  </g>
</svg>